# xmcd
#
# Track frame offsets: 
#        150
#        25239
#        52560
#        93608
#        112622
#        164550
#        199807
#
# Disc length: 3120 seconds
#
# Revision: 4
# Processed by: cddbd v1.5.2PL0 Copyright (c) Steve Scherf et al.
# Submitted via: ExactAudioCopyFreeDBPlugin 1.0
#
DISCID=4d0c2e07
DTITLE=Varios - Viva La Salsa CD-2
DYEAR=2004
DGENRE=Salsa
TTITLE0=Endel dueno - El Rey Del Timbal - {Endel Dueno}
TTITLE1=Papo Sánchez - Sin Tu Carino - {Papo Sanchez}
TTITLE2=Papo Sánchez - Son Son Charari - {Papo Sanchez}
TTITLE3=Primi Cruz - Arrebatadora - {Primi Cruz}
TTITLE4=Darvel Garcia - Puerto Rico - {Darvel Garcia}
TTITLE5=Tito Allen - Guancona - {Tito Allen}
TTITLE6=Tito Allen - Indestructible - {Tito Allen}
EXTD=
EXTT0=
EXTT1=
EXTT2=
EXTT3=
EXTT4=
EXTT5=
EXTT6=
PLAYORDER=
